<?xml version="1.0" encoding="UTF-8" standalone="no"?>
<!-- Created with Inkscape (http://www.inkscape.org/) -->

<svg
   width="800mm"
   height="200mm"
   viewBox="0 0 800 200"
   version="1.1"
   id="svg1"
   inkscape:version="1.3.1 (6036e22fae, 2023-11-19, custom)"
   sodipodi:docname="battleship2.svg"
   xmlns:inkscape="http://www.inkscape.org/namespaces/inkscape"
   xmlns:sodipodi="http://sodipodi.sourceforge.net/DTD/sodipodi-0.dtd"
   xmlns="http://www.w3.org/2000/svg"
   xmlns:svg="http://www.w3.org/2000/svg">
  <sodipodi:namedview
     id="namedview1"
     pagecolor="#ffffff"
     bordercolor="#000000"
     borderopacity="0.25"
     inkscape:showpageshadow="2"
     inkscape:pageopacity="0.0"
     inkscape:pagecheckerboard="0"
     inkscape:deskcolor="#d1d1d1"
     inkscape:document-units="mm"
     inkscape:zoom="0.36346801"
     inkscape:cx="1133.5248"
     inkscape:cy="572.26494"
     inkscape:window-width="1850"
     inkscape:window-height="1016"
     inkscape:window-x="0"
     inkscape:window-y="0"
     inkscape:window-maximized="1"
     inkscape:current-layer="layer1" />
  <defs
     id="defs1" />
  <g
     inkscape:label="Layer 1"
     inkscape:groupmode="layer"
     id="layer1">
    <path
       style="fill:#000000;stroke-width:1.1555"
       d="m 66.527009,189.55029 c -5.280601,-1.05625 -6.076634,-4.60684 -2.648637,-11.81418 3.037735,-6.38688 2.288064,-11.08492 -3.218965,-20.17257 -2.326833,-3.83971 -4.23062,-7.58997 -4.23062,-8.33394 0,-0.74392 -0.963966,-1.35263 -2.142187,-1.35263 -2.481708,0 -36.124783,-34.70574 -36.124783,-37.26578 0,-2.1822 3.064331,-2.1473 68.561675,0.78038 29.231708,1.30658 53.516108,1.95703 53.965348,1.4454 0.80953,-0.922 -10.32558,-11.43519 -12.11165,-11.43519 -0.51111,0 -0.9293,-0.84784 -0.9293,-1.884104 0,-2.58857 1.30582,-2.37769 7.17451,1.158794 9.10742,5.48815 10.41488,5.9214 18.56087,6.15075 9.06169,0.25493 11.56895,1.92726 13.79438,9.19958 1.29972,4.24728 4.05204,5.83139 4.05204,2.33217 0,-1.59869 2.65744,-1.88415 17.53905,-1.88415 15.13139,0 17.53901,-0.26728 17.53901,-1.94649 0,-1.07059 0.69523,-3.53516 1.5449,-5.47681 1.44603,-3.30429 1.37966,-3.70004 -1.03648,-6.18255 -1.4198,-1.45874 -4.50666,-4.088424 -6.85977,-5.843734 -4.08531,-3.047507 -5.54873,-5.672162 -3.1626,-5.672162 2.11559,0 7.45621,3.877783 6.87395,4.991051 -0.321,0.613701 -0.0241,1.524821 0.66097,2.024721 0.79217,0.57857 0.9593,0.36366 0.45976,-0.59157 -0.88,-1.682532 3.63563,-0.77241 7.33352,1.47806 1.15159,0.700808 5.26497,1.152714 9.14084,1.004164 6.24228,-0.23927 7.42729,0.10824 10.37688,3.04086 1.83143,1.82097 3.89833,5.55301 4.59316,8.2934 l 1.26328,4.98246 7.49578,-0.3646 7.49579,-0.3646 2.36737,-4.9959 c 2.08124,-4.39221 2.1812,-5.239 0.82685,-7.00742 -2.556,-3.33743 -1.88226,-9.280187 1.54341,-13.613627 2.50626,-3.170371 3.92296,-3.901093 7.5632,-3.901093 3.80653,0 5.01966,0.697158 8.07728,4.641785 4.0056,5.16756 4.49064,8.439901 1.77631,11.984085 -1.72709,2.25511 -1.69178,2.66814 0.67921,7.94945 l 2.50091,5.57075 11.27922,-0.0332 11.27925,-0.0332 5.31483,-8.29824 c 2.92318,-4.56402 5.57315,-9.495774 5.88888,-10.959454 0.44772,-2.07585 1.6169,-2.79945 5.31483,-3.289336 3.27787,-0.434388 4.16682,-0.906566 2.88065,-1.530661 -1.19453,-0.57966 -1.86019,-2.265229 -1.86019,-4.710337 v -3.807711 h 9.03526 9.03526 v 3.705879 c 0,2.198005 -0.7569,4.233411 -1.86019,5.00254 -1.31486,0.916536 4.06055,1.211018 18.33624,1.004458 l 20.19645,-0.291966 4.95012,-11.278764 c 2.7226,-6.203285 4.87511,-12.703534 4.78339,-14.444976 -0.16231,-3.08374 0.051,-3.182619 8.19001,-3.794299 8.32424,-0.625596 8.36358,-0.64515 10.10184,-5.024345 2.95413,-7.442384 9.83961,-6.62562 11.32072,1.342882 l 0.68426,3.681463 17.72032,-7.55e-4 17.72032,-7.55e-4 7.62109,-14.758263 c 6.03449,-11.685755 7.50246,-15.477396 7.05117,-18.2125 -0.55659,-3.373099 -0.44848,-3.45766 4.60304,-3.599945 2.84518,-0.08014 4.33596,-0.404195 3.31286,-0.720144 -1.31992,-0.407613 -1.8602,-1.837791 -1.8602,-4.924123 v -4.34969 l 10.36394,0.359522 10.36398,0.359522 0.33708,3.463518 c 0.25832,2.653544 -0.23905,3.736476 -2.12596,4.630709 -1.74984,0.829207 0.95119,1.190238 9.32778,1.246804 l 11.79085,0.07961 2.6036,-7.850543 2.60356,-7.850542 h 5.26617 5.26622 l 2.25862,7.53652 2.25869,7.53652 8.90691,0.171097 c 4.89877,0.09409 7.83064,-0.0865 6.51522,-0.401394 -1.92134,-0.459882 -2.39171,-1.419928 -2.39171,-4.881439 v -4.308943 h 10.62974 10.6297 v 4.308943 c 0,3.469852 -0.46575,4.414944 -2.39168,4.853291 -1.31542,0.299372 1.07626,0.621323 5.31487,0.715402 6.37466,0.141521 7.70651,0.527016 7.70651,2.230734 0,1.132823 -0.74903,2.706909 -1.66454,3.497966 -1.42361,1.230084 1.20698,5.750268 18.17289,31.226615 l 19.83748,29.788333 h 10.52733 c 9.81864,0 10.5273,-0.169008 10.5273,-2.512189 0,-2.177211 0.70865,-2.512141 5.31487,-2.512141 4.60621,0 5.31487,0.334692 5.31487,2.512141 0,1.381735 0.47832,2.512189 1.06295,2.512189 0.58464,0 1.06296,0.874189 1.06296,1.942595 0,1.068405 2.75044,6.152412 6.11211,11.297752 l 6.11207,9.35516 5.58063,0.009 5.58059,0.005 v -4.39629 -4.3963 h 9.36788 c 9.09637,0 9.4583,0.11299 12.48989,3.89468 1.71714,2.14204 4.19832,4.38904 5.51374,4.99324 1.9301,0.88658 2.39168,2.07424 2.39168,6.15402 v 5.05543 h 11.57896 c 9.31183,0 11.69876,-0.36887 12.19083,-1.88411 0.91809,-2.82722 51.46166,-2.82722 52.37975,0 0.33667,1.03627 1.56921,1.88411 2.73931,1.88411 1.7782,0 2.01503,0.56703 1.4427,3.45427 -1.21253,6.11685 -5.07679,16.6431 -6.10974,16.6431 -0.55125,0 -0.74353,0.49468 -0.42735,1.09926 0.31618,0.60459 -0.16994,3.683 -1.08063,6.84093 -1.57399,5.45849 -1.87205,5.76047 -6.04449,6.12322 l -4.38892,0.38169 -1.64276,7.53851 c -0.90351,4.14616 -2.02974,8.24413 -2.50272,9.10659 -0.93078,1.69734 -11.08706,2.16919 -13.0626,0.60686 -0.64184,-0.50755 -1.85887,-4.31136 -2.70456,-8.45286 -1.79572,-8.79397 -1.80488,-8.79881 -14.37223,-7.56173 -9.45771,0.93092 -11.79872,2.76342 -4.34444,3.40076 3.70003,0.31618 4.51764,0.84086 4.51764,2.89839 0,2.47953 -0.92625,2.52221 -71.21908,3.2835 -63.89294,0.69203 -72.0392,1.00702 -79.19137,3.06218 -7.54058,2.16677 -19.8012,2.32908 -226.41291,2.99695 l -218.44063,0.70608 -14.88157,4.81468 c -13.30687,4.30524 -16.456329,4.86045 -29.763226,5.2468 -8.184873,0.23784 -16.794921,0.0494 -19.133485,-0.41825 z m 49.959661,-8.49844 13.81862,-4.80785 219.50359,-0.77596 c 197.73522,-0.69901 220.45234,-0.98182 229.07034,-2.85159 8.15671,-1.76974 19.51535,-2.11302 77.06542,-2.32917 37.12427,-0.13958 65.22661,-0.46525 62.44957,-0.72398 -4.51667,-0.4211 -5.04911,-0.78969 -5.04911,-3.49771 0,-1.66492 0.8487,-3.56388 1.88599,-4.21988 2.32044,-1.46747 23.26455,-2.25203 24.39946,-0.91397 0.45117,0.53195 1.53803,4.17117 2.41526,8.08717 l 1.59492,7.12003 5.00254,0.38074 5.00259,0.38075 1.71332,-7.28909 c 0.94231,-4.009 1.90471,-7.99569 2.13865,-8.85924 0.24507,-0.90477 2.19711,-1.57012 4.60662,-1.57012 3.73417,0 4.30603,-0.42299 5.34822,-3.95568 0.6418,-2.17565 1.16693,-4.15394 1.16693,-4.3963 0,-0.24212 -159.60878,-0.44056 -354.68625,-0.44056 H 59.247125 l 2.199637,2.82618 c 6.945948,8.92453 8.583372,18.97779 4.395258,26.9854 -1.896073,3.62522 -2.030138,4.55808 -0.797238,5.54607 0.855372,0.68538 9.124734,0.96045 19.552754,0.6503 17.159184,-0.5103 18.767404,-0.77991 31.889134,-5.34526 z m 525.63936,-13.00953 c -3.38083,-0.77915 -3.08976,-0.93728 3.18891,-1.73281 12.67402,-1.60576 61.75245,-4.69073 62.77258,-3.94571 0.55313,0.404 1.00571,2.11421 1.00571,3.80059 v 3.06607 l -31.62343,-0.16521 c -17.39285,-0.0907 -33.29756,-0.55118 -35.34377,-1.02279 z m 25.25797,-0.93097 c -1.01632,-0.31428 -2.92967,-0.32567 -4.25192,-0.0237 -1.32221,0.30051 -0.4907,0.55767 1.84783,0.57163 2.33852,0.0142 3.42036,-0.23167 2.40409,-0.54628 z m 34.53416,-1.3128 c -2.48468,-0.26443 -6.55054,-0.26443 -9.03527,0 -2.48468,0.26443 -0.45177,0.48087 4.51764,0.48087 4.9694,0 7.00231,-0.21649 4.51763,-0.48087 z m 70.17511,-25.4581 c 0.91861,-2.76338 1.23033,-5.02433 0.69271,-5.02433 -0.53759,0 -0.97747,-1.70632 -0.97747,-3.79181 v -3.79186 l -24.16307,0.33755 -24.16307,0.33754 -0.0201,3.14022 -0.0201,3.14023 h -14.35001 c -16.08904,0 -14.52606,1.0967 -14.7686,-10.36271 -0.0735,-3.48261 -0.59479,-5.33837 -1.49894,-5.33837 -0.76229,0 -3.00861,-1.97834 -4.9919,-4.39629 -3.42531,-4.17607 -3.96828,-4.39635 -10.83825,-4.39635 h -7.23228 v 4.39635 4.39629 l -7.7065,-0.0579 -7.70655,-0.0579 -6.11211,-9.23343 c -3.36163,-5.07845 -6.11207,-10.139574 -6.11207,-11.247044 0,-1.21311 -0.89438,-2.013524 -2.24993,-2.013524 -1.72658,0 -2.12062,-0.584359 -1.69396,-2.512189 0.40497,-1.829891 0.0321,-2.512189 -1.37098,-2.512189 -1.40356,0 -1.77591,0.682298 -1.37098,2.512189 0.53481,2.416529 0.0321,2.512189 -13.1881,2.512189 H 608.50694 L 587.58047,65.050638 C 576.07093,47.821105 566.654,32.842273 566.654,31.764344 c 0,-1.485423 -1.15797,-1.95987 -4.78335,-1.95987 -4.39361,0 -4.78339,-0.255886 -4.78339,-3.14022 0,-2.302824 0.56691,-3.140215 2.12595,-3.140215 1.18108,0 2.12592,-0.837392 2.12592,-1.88413 0,-1.517772 -1.6535,-1.88413 -8.50375,-1.88413 -6.85024,0 -8.50378,0.366358 -8.50378,1.88413 0,1.046738 0.94488,1.88413 2.12596,1.88413 1.56683,0 2.12591,0.837391 2.12591,3.184157 v 3.184157 l -10.80912,-0.357955 -10.80912,-0.357955 -2.03512,-7.222497 c -1.11929,-3.972375 -2.47356,-7.222498 -3.0095,-7.222498 -0.53589,0 -0.97437,3.391434 -0.97437,7.53652 0,5.861737 -0.35434,7.53652 -1.59447,7.53652 -1.24014,0 -1.59444,-1.674783 -1.59444,-7.53652 0,-4.145086 -0.43847,-7.53652 -0.97441,-7.53652 -0.5359,0 -1.89049,3.250123 -3.01022,7.222498 l -2.0358,7.222497 -13.99731,0.350454 -13.99736,0.350502 v -3.176676 c 0,-1.986322 0.59749,-3.176675 1.59448,-3.176675 0.87694,0 1.59443,-0.847859 1.59443,-1.88413 0,-1.507304 -1.59443,-1.88413 -7.97226,-1.88413 -6.07913,0 -7.97231,0.412646 -7.97231,1.73763 0,0.955697 0.9567,2.03326 2.12596,2.394581 1.27195,0.393039 2.12596,1.713323 2.12596,3.286716 0,2.230667 -0.6453,2.629768 -4.25192,2.629768 -3.38577,0 -4.25187,0.460547 -4.25187,2.260956 0,1.243523 -0.45611,2.799916 -1.01354,3.458643 -0.64277,0.759529 0.71829,1.034922 3.72039,0.752783 2.60368,-0.244729 4.73394,0.07658 4.73394,0.713898 0,2.639106 -3.46227,12.911105 -4.35179,12.911105 -0.52967,0 -0.96304,0.836418 -0.96304,1.858712 0,1.022289 -0.76948,4.131105 -1.7099,6.908475 -1.58612,4.684369 -2.00917,5.049763 -5.84635,5.049763 -2.76511,0 -4.13645,-0.562498 -4.13645,-1.696693 0,-2.886807 2.33037,-10.169991 3.67712,-11.492217 0.70367,-0.690844 1.60328,-3.234423 1.99913,-5.652385 0.5596,-3.418338 -0.84312,-1.386345 -6.30572,9.134471 l -7.02541,13.53078 -19.19829,-0.341861 -19.19825,-0.341861 -1.29091,-4.396305 -1.29087,-4.396305 -0.39734,3.757521 c -0.24748,2.340167 -1.09915,3.914761 -2.25769,4.174383 -1.45744,0.326622 -1.87771,-0.486943 -1.94107,-3.757517 l -0.0808,-4.174387 -1.33912,4.396305 -1.33913,4.396305 -7.61526,0.369064 c -5.30145,0.25693 -7.61523,0.85583 -7.61523,1.971174 0,0.881167 -2.54161,7.215343 -5.64804,14.075964 l -5.64801,12.47383 -21.98926,0.33944 -21.98923,0.339441 v -3.793707 c 0,-2.534834 0.52911,-3.793753 1.59448,-3.793753 0.87694,0 1.59443,-0.565227 1.59443,-1.256118 0,-0.697823 -2.83456,-1.256071 -6.37782,-1.256071 -6.04398,0 -8.27459,1.383301 -4.78336,2.966421 0.87695,0.397834 1.59444,2.153855 1.59444,3.90266 0,2.931053 -0.37403,3.179628 -4.78335,3.179628 -3.64912,0 -4.78339,0.469994 -4.78339,1.982851 0,1.09058 -2.90074,6.177754 -6.44609,11.304774 l -6.44611,9.32193 h -13.05054 -13.05058 l -3.09145,-7.46897 c -1.7003,-4.10793 -3.68938,-7.49934 -4.42016,-7.53652 -2.08342,-0.10586 -1.55624,-3.06364 0.86449,-4.850044 2.96212,-2.18595 2.28167,-6.569233 -1.39597,-8.992503 -2.6267,-1.730717 -3.21965,-1.730717 -5.84635,0 -3.5828,2.360746 -4.31575,6.639401 -1.53209,8.943373 2.18465,1.808184 2.48042,3.439444 0.98992,5.459654 -0.5097,0.69085 -2.33989,4.22359 -4.06706,7.85057 l -3.14031,6.59444 h -9.37699 -9.377 l -1.24519,-4.71034 c -2.30301,-8.71184 -3.52936,-9.66607 -13.31791,-10.3627 -7.65657,-0.54496 -8.76641,-0.36698 -8.38619,1.3438 0.24105,1.08455 -0.31256,2.70816 -1.23017,3.60808 -0.91756,0.89988 -1.66836,3.54528 -1.66836,5.87863 v 4.24253 h -18.07049 c -15.35403,0 -18.07052,0.28342 -18.07052,1.8841 0,1.25247 -1.05995,1.88416 -3.16164,1.88416 -2.49934,0 -3.52815,-0.85515 -4.91155,-4.0823 -3.33993,-7.79151 -4.35837,-8.4786 -12.56743,-8.4786 -6.81578,0 -7.65822,0.27677 -8.60479,2.82623 -1.44643,3.89587 -2.43784,3.91234 -66.422014,1.10207 -30.108654,-1.3224 -54.856114,-2.28389 -54.994358,-2.13663 -0.138203,0.14717 6.797661,7.69238 15.413092,16.76683 l 15.664389,16.49906 358.325871,0.0565 358.32584,0.0565 z m -293.66483,-6.25206 c 0,-4.21533 -0.35233,-5.05272 -2.12595,-5.05272 -1.18107,0 -2.12596,-0.8374 -2.12596,-1.88411 0,-1.61896 3.36609,-1.88415 23.91688,-1.88415 20.55075,0 23.91684,0.26538 23.91684,1.88415 0,1.03627 -0.92781,1.88411 -2.06176,1.88411 -1.61521,0 -2.13323,1.02026 -2.39168,4.71033 l -0.32984,4.71034 -19.39924,0.34229 -19.3992,0.34229 z m 36.14102,-1.9125 v -4.39629 h -17.00753 -17.00757 v 3.5589 c 0,1.9574 0.31899,3.93574 0.70865,4.39629 0.3897,0.4605 8.04314,0.8374 17.00753,0.8374 h 16.29892 z m 5.58059,-5.22818 c -0.73079,-0.34846 -1.92665,-0.34846 -2.65744,0 -0.73079,0.34846 -0.13298,0.63359 1.32872,0.63359 1.46158,0 2.05951,-0.28532 1.32872,-0.63359 z m 13.19855,11.29927 c -0.3897,-0.4605 -0.70865,-2.7215 -0.70865,-5.02433 0,-3.34959 -0.42518,-4.18698 -2.12592,-4.18698 -1.18107,0 -2.12596,-0.8374 -2.12596,-1.88411 0,-1.61198 3.0708,-1.88415 21.25945,-1.88415 13.4643,0 21.2594,-0.4605 21.2594,-1.25607 0,-0.69944 2.85923,-1.25607 6.45179,-1.25607 6.0827,0 6.4323,0.16188 6.11207,2.82618 -0.2961,2.46215 -1.05854,2.87513 -5.92028,3.20588 l -5.58059,0.37979 v 4.95872 4.95868 H 553.0136 c -10.42601,0 -19.27522,-0.37695 -19.665,-0.8374 z m 36.29697,-6.38508 0.33306,-4.0823 h -17.07491 -17.0749 v 4.42819 4.4282 l 16.74181,-0.34608 16.74181,-0.34609 z m -36.23052,-4.84118 c -0.35314,-0.4173 -1.27002,-0.46192 -2.03737,-0.0992 -0.84794,0.40116 -0.59608,0.69863 0.64224,0.75888 1.12053,0.0546 1.74835,-0.24212 1.39513,-0.65971 z m 42.51884,-1.25612 c -0.35314,-0.41729 -1.27002,-0.46192 -2.03733,-0.0992 -0.84798,0.40116 -0.59612,0.69858 0.6422,0.75888 1.12053,0.0546 1.74835,-0.24212 1.39513,-0.6597 z m 11.67402,2.49012 c -0.41602,-0.4916 -0.75642,-1.93006 -0.75642,-3.19663 0,-1.9801 0.90418,-2.30282 6.45179,-2.30282 6.0827,0 6.4323,0.16188 6.11207,2.82618 -0.29368,2.44378 -1.06437,2.87631 -5.69537,3.19662 -2.94562,0.20367 -5.69606,-0.0332 -6.11207,-0.52335 z m 15.18815,-2.29656 c 0,-3.08136 0.24467,-3.20289 6.45179,-3.20289 6.0827,0 6.43231,0.16188 6.11207,2.82618 -0.30091,2.50359 -1.03733,2.86919 -6.45175,3.20289 -5.92614,0.36508 -6.11211,0.27915 -6.11211,-2.82618 z m 15.2591,1.17209 c -1.07256,-3.30283 1.08148,-4.54319 7.17728,-4.13282 4.91488,0.3309 5.73237,0.74411 5.73237,2.89806 0,2.17788 -0.81504,2.56237 -6.12493,2.88932 -4.85924,0.29909 -6.26128,-0.0427 -6.78472,-1.65456 z m 16.27573,1.06802 c -0.3897,-0.4605 -0.70865,-1.87361 -0.70865,-3.14018 0,-1.9772 0.9019,-2.30282 6.37783,-2.30282 6.09435,0 6.37783,0.13957 6.37783,3.14022 0,2.95702 -0.33064,3.14018 -5.66918,3.14018 -3.11804,0 -5.98808,-0.37695 -6.37783,-0.8374 z m 15.99234,0.0565 c -0.41605,-0.49155 -0.75642,-1.93002 -0.75642,-3.19658 0,-1.9801 0.90415,-2.30283 6.45175,-2.30283 6.08275,0 6.43235,0.16189 6.11211,2.82618 -0.29368,2.44378 -1.06436,2.87632 -5.69537,3.19663 -2.94561,0.20366 -5.69605,-0.0332 -6.11207,-0.52336 z M 468.8617,87.719308 c 0,-1.30777 0.75662,-2.720885 1.68138,-3.140224 2.19116,-0.993587 34.83893,-0.993587 37.03013,0 0.92476,0.419196 1.68138,1.832454 1.68138,3.140224 0,2.249562 -1.08911,2.37779 -20.19644,2.37779 -19.10734,0 -20.19645,-0.12818 -20.19645,-2.37779 z m 53.52093,-4.567677 c -1.16054,-3.573853 1.22169,-4.47045 10.88582,-4.097113 8.6579,0.334692 9.46976,0.581226 9.46976,2.878025 0,2.305439 -0.81062,2.541908 -9.85046,2.873609 -8.24699,0.302411 -9.95701,0.03323 -10.50512,-1.654521 z m 14.24347,-1.50607 c -2.19237,-0.271077 -5.7799,-0.271077 -7.97227,0 -2.1924,0.271078 -0.39854,0.492735 3.98612,0.492735 4.38477,0 6.17855,-0.221705 3.98615,-0.492735 z m -45.04462,-3.441305 c -0.3435,-1.058308 -0.3435,-2.790089 0,-3.848401 0.52163,-1.606259 2.69198,-1.865691 13.13515,-1.570108 l 12.51026,0.35411 v 3.14022 3.140182 l -12.51026,0.354157 c -10.44317,0.295764 -12.61352,0.03798 -13.13515,-1.570113 z m 18.50598,-1.589667 c -2.75743,-0.257785 -7.54078,-0.260491 -10.62974,-0.0057 -3.08892,0.254509 -0.83283,0.465484 5.01352,0.468712 5.84631,0.0033 8.37361,-0.204993 5.61622,-0.462778 z M 388.07585,75.023968 c 0,-2.511078 0.46455,-2.549499 26.84003,-2.21972 23.02294,0.287883 26.84003,0.603548 26.84003,2.21972 0,1.616176 -3.81709,1.93186 -26.84003,2.21972 -26.37548,0.329803 -26.84003,0.291349 -26.84003,-2.21972 z m 167.62174,1.706202 c -0.40436,-0.477842 -0.73524,-2.523237 -0.73524,-4.545317 0,-2.620131 0.61086,-3.865269 2.12595,-4.333454 2.75149,-0.850252 2.75422,-4.901154 0.004,-5.751055 -1.95457,-0.603985 -2.10141,-1.582508 -1.8602,-12.393348 l 0.26154,-11.737583 h 6.37783 6.37783 l 0.18882,11.932825 c 0.10366,6.563053 0.22338,13.183398 0.26556,14.71188 0.0727,2.63406 0.58994,2.797903 9.9094,3.14022 l 9.8325,0.361136 v 4.396305 4.3963 l -16.00656,0.345422 c -8.80361,0.189991 -16.33744,-0.04557 -16.74181,-0.523369 z m 30.09094,-4.846417 c 0,-1.534132 -1.76341,-1.88413 -9.49282,-1.88413 -9.02181,0 -9.50965,-0.139574 -9.83246,-2.81336 -0.45897,-3.801212 -4.06008,-4.625558 -4.06008,-0.929406 0,1.665492 -0.82508,2.976832 -2.12595,3.378815 -1.16927,0.361326 -2.12596,1.438884 -2.12596,2.394581 0,1.390342 2.76185,1.73763 13.81865,1.73763 11.57459,0 13.81862,-0.305971 13.81862,-1.88413 z M 566.65504,56.182668 c 0,-2.139996 -0.70865,-2.51217 -4.78335,-2.51217 -4.07474,0 -4.78339,0.372197 -4.78339,2.51217 0,2.140002 0.70865,2.512175 4.78339,2.512175 4.0747,0 4.78335,-0.372197 4.78335,-2.512175 z m 0,-12.560865 c 0,-2.139996 -0.70865,-2.51217 -4.78335,-2.51217 -4.07474,0 -4.78339,0.372198 -4.78339,2.51217 0,2.140002 0.70865,2.512175 4.78339,2.512175 4.0747,0 4.78335,-0.372197 4.78335,-2.512175 z m -80.07716,26.796513 c -0.3897,-0.460546 -0.70865,-4.982472 -0.70865,-10.04869 v -9.211303 h 32.30689 c 28.4791,0 32.38333,0.235425 32.95214,1.986864 1.13137,3.483971 0.69262,15.039856 -0.63039,16.603217 -0.93372,1.103366 -9.57462,1.507304 -32.24345,1.507304 -17.03236,0 -31.2868,-0.37685 -31.67654,-0.837392 z m 62.00664,-9.858902 v -6.928039 l -30.02891,0.3336 -30.02894,0.333601 -0.32141,6.594458 -0.3214,6.594452 h 30.35023 30.35023 z m -62.50565,-17.233384 0.3218,-6.612702 32.13072,-0.332414 32.13075,-0.332413 0.63863,3.006822 c 0.35113,1.653747 0.4817,4.629521 0.29006,6.612829 l -0.34872,3.606008 -32.74242,0.332272 -32.74247,0.332271 z m 62.50565,0.295764 v -3.76826 h -30.29467 -30.29466 v 3.76826 3.76826 h 30.29466 30.29467 z m 166.62077,88.253916 c -3.36162,-0.24924 -8.86251,-0.24924 -12.22417,0 -3.36163,0.24924 -0.61119,0.45338 6.11211,0.45338 6.72329,0 9.47373,-0.20414 6.11206,-0.45338 z m 0,-2.51219 c -3.36162,-0.24924 -8.86251,-0.24924 -12.22417,0 -3.36163,0.24924 -0.61119,0.45338 6.11211,0.45338 6.72329,0 9.47373,-0.20414 6.11206,-0.45338 z M 135.08868,103.33013 c 0,-0.3214 -1.07626,-1.20019 -2.39168,-1.95347 -2.2967,-1.31513 -2.30971,-1.29196 -0.32823,0.58389 2.16871,2.05316 2.71999,2.33074 2.71999,1.36958 z M 258.03903,100.829 c 0,-1.005876 -0.40641,-1.532074 -0.90314,-1.169286 -0.49673,0.362706 -0.62794,1.185756 -0.29167,1.828846 0.85955,1.64346 1.19473,1.45841 1.19473,-0.65956 z M 464.43917,58.007688 c 1.64642,-4.269995 1.55482,-5.593289 -0.38729,-5.593289 -1.45728,0 -3.69408,4.612981 -3.69408,7.618294 0,2.469206 2.90395,1.028352 4.08124,-2.025005 z m 5.3863,-14.589577 c 0.64445,-2.18457 0.95107,-4.232733 0.68129,-4.551479 -1.15404,-1.363699 -3.5897,1.077198 -4.64523,4.655219 -1.00663,3.412275 -0.90933,3.868203 0.82552,3.868203 1.25191,0 2.39252,-1.443542 3.13842,-3.971943 z m 49.76622,-26.465652 c -0.23663,-2.257628 -0.43502,-0.713341 -0.44096,3.431745 -0.008,4.145086 0.18762,5.992233 0.43012,4.104775 0.24265,-1.887458 0.24747,-5.278892 0.0121,-7.53652 z"
       id="path1"
       clip-path="none"
       inkscape:highlight-color="#f37f35" />
  </g>
</svg>
